<svg xmlns="http://www.w3.org/2000/svg" xmlns:xlink="http://www.w3.org/1999/xlink" version="1.1" x="0px" y="0px" viewBox="0 0 100 125" style="enable-background:new 0 0 100 100;" xml:space="preserve"><path d="M50,10.7c4.1,0,7.8,2.7,11.1,8L90,71.7l0.1,0.1l0.1,0.1c2,2.8,2.8,5.1,2.8,7.5c0,5.6-4.7,9.9-10.9,9.9H18  C11.7,89.3,7,85,7,79.4c0-2.4,0.8-4.6,2.8-7.5l0.1-0.1l0.1-0.1l28.9-52.9C42.2,13.4,45.9,10.7,50,10.7 M50,7.7  c-5.2,0-9.9,3.2-13.7,9.5l-28.9,53c-2.2,3.2-3.3,6-3.3,9.2c0,7.4,6.3,12.9,13.9,12.9h64c7.7,0,13.9-5.4,13.9-12.9  c0-3.2-1.2-6-3.3-9.2l-28.9-53C59.9,10.9,55.2,7.7,50,7.7L50,7.7z"/><path d="M45.4,32.8c-0.1-1.3,0.4-2.5,1.3-3.5c1.8-1.8,4.8-1.8,6.6,0c1,1,1.5,2.4,1.3,3.8c0,0.1,0,0.2,0,0.3l-3,28.1  C51.5,62.4,50.8,63,50,63c-0.7,0-1.4-0.8-1.5-1.5l-3.2-28.1C45.3,33.2,45.3,33,45.4,32.8z"/><circle cx="50" cy="71.4" r="4.7"/><text x="0" y="115" fill="#000000" font-size="5px" font-weight="bold" font-family="'Helvetica Neue', Helvetica, Arial-Unicode, Arial, Sans-serif">Created by Mike Rowe</text><text x="0" y="120" fill="#000000" font-size="5px" font-weight="bold" font-family="'Helvetica Neue', Helvetica, Arial-Unicode, Arial, Sans-serif">from the Noun Project</text></svg>