<svg xmlns="http://www.w3.org/2000/svg" xmlns:xlink="http://www.w3.org/1999/xlink" version="1.1" x="0px" y="0px" viewBox="0 0 48 60" enable-background="new 0 0 48 48" xml:space="preserve"><g><path d="M45,9.6H3c-1.7,0-3,1.3-3,3v22.9c0,1.7,1.3,3,3,3h42c1.7,0,3-1.3,3-3V12.6C48,10.9,46.7,9.6,45,9.6z M8,35.4   c0-2.8-2.2-5-5-5V17.6c2.8,0,5-2.2,5-5h12.2c-3.4,1.9-5.7,6.3-5.7,11.4c0,5.1,2.4,9.5,5.7,11.4H8z M24.7,29.8V31h-1.1v-1.2   c-1.6-0.2-2.9-0.8-4.2-1.9l1.2-1.5c1,0.8,1.9,1.3,2.9,1.5v-3.3c-1.3-0.3-2.2-0.7-2.8-1.2c-0.6-0.5-0.9-1.2-0.9-2.2   c0-1,0.3-1.8,1-2.4c0.7-0.6,1.6-1,2.7-1V17h1.1v0.9c1.2,0.1,2.4,0.5,3.5,1.3l-1.1,1.6c-0.7-0.5-1.6-0.9-2.4-1v3.2h0.1   c1.3,0.3,2.3,0.7,2.9,1.2c0.6,0.5,0.9,1.3,0.9,2.3c0,1-0.4,1.8-1.1,2.4C26.8,29.4,25.9,29.8,24.7,29.8z M45,30.4c-2.8,0-5,2.2-5,5   H27.8c3.4-1.9,5.7-6.3,5.7-11.4c0-5.1-2.4-9.5-5.7-11.4H40c0,2.8,2.2,5,5,5V30.4z"/><path d="M24.7,24.9V28c0.5-0.1,1-0.2,1.3-0.5c0.3-0.3,0.5-0.6,0.5-1c0-0.4-0.1-0.7-0.4-0.9C25.9,25.4,25.4,25.1,24.7,24.9z"/><path d="M22,21c0,0.4,0.1,0.7,0.3,0.9c0.2,0.2,0.7,0.4,1.3,0.6v-2.9c-0.5,0-0.9,0.2-1.2,0.5C22.1,20.3,22,20.6,22,21z"/><circle cx="39.2" cy="24" r="3.1"/><circle cx="8.8" cy="24" r="3.1"/></g><text x="0" y="63" fill="#000000" font-size="5px" font-weight="bold" font-family="'Helvetica Neue', Helvetica, Arial-Unicode, Arial, Sans-serif">Created by Creative Stall</text><text x="0" y="68" fill="#000000" font-size="5px" font-weight="bold" font-family="'Helvetica Neue', Helvetica, Arial-Unicode, Arial, Sans-serif">from the Noun Project</text></svg>