<svg xmlns="http://www.w3.org/2000/svg" xmlns:xlink="http://www.w3.org/1999/xlink" version="1.1" x="0px" y="0px" viewBox="0 0 100 125" enable-background="new 0 0 100 100" xml:space="preserve"><g><g><path fill="#000000" d="M74.839,88.56c-0.533,0-1.068-0.142-1.546-0.429L49.837,74.028l-23.456,14.06    c-1.075,0.646-2.441,0.554-3.421-0.234c-0.979-0.787-1.364-2.101-0.966-3.291l8.39-25.064L13.786,43.925    c-0.897-0.842-1.189-2.146-0.737-3.291c0.453-1.145,1.56-1.896,2.79-1.896h20.982l10.239-25.132    c0.46-1.13,1.559-1.868,2.778-1.868s2.318,0.738,2.778,1.868l10.239,25.132h20.982c1.23,0,2.337,0.752,2.79,1.896    c0.452,1.145,0.16,2.45-0.738,3.292L69.294,59.491l8.391,25.118c0.397,1.191,0.012,2.505-0.969,3.291    C76.171,88.337,75.506,88.56,74.839,88.56z M49.839,67.529c0.535,0,1.07,0.143,1.546,0.429L69.418,78.8l-6.425-19.231    c-0.371-1.111-0.062-2.337,0.794-3.139l12.468-11.692H60.839c-1.22,0-2.318-0.738-2.778-1.868l-8.222-20.181l-8.222,20.181    c-0.46,1.13-1.559,1.868-2.778,1.868H23.421l12.471,11.701c0.854,0.802,1.164,2.028,0.792,3.14l-6.423,19.188l18.036-10.811    C48.771,67.672,49.305,67.529,49.839,67.529z"/></g></g><text x="0" y="115" fill="#000000" font-size="5px" font-weight="bold" font-family="'Helvetica Neue', Helvetica, Arial-Unicode, Arial, Sans-serif">Created by Mete Eraydın</text><text x="0" y="120" fill="#000000" font-size="5px" font-weight="bold" font-family="'Helvetica Neue', Helvetica, Arial-Unicode, Arial, Sans-serif">from the Noun Project</text></svg>