<svg xmlns="http://www.w3.org/2000/svg" xmlns:xlink="http://www.w3.org/1999/xlink" version="1.1" x="0px" y="0px" viewBox="0 0 512 640" enable-background="new 0 0 512 512" xml:space="preserve"><g><path d="M241.9,6.4C241.6,3.9,239.5,2,237,2h-20.7v113.8c0,7-5.5,12.7-12.3,12.7c-6.8,0-12.3-5.7-12.3-12.7V2h-24.5v113.8   c0,7-5.5,12.7-12.3,12.7c-6.8,0-12.3-5.7-12.3-12.7V2h-20c-2.5,0-4.6,1.9-4.9,4.4l-13.4,110.4c-4.2,34.5,14.1,65.7,42.2,79.8   c3.8,1.9,6.2,5.6,5.9,9.8l-19.2,249.7c-2,26.1,16.3,50.8,42.3,53.1c29.4,2.6,53.4-21.7,51.2-50.4l-19.4-252.4   c-0.3-4.2,2.1-7.9,5.9-9.8c28.1-14.2,46.4-45.4,42.2-79.8L241.9,6.4z"/><path d="M408.4,242.2V78.1c0-38.1-27.9-69.8-64.4-75.6c-6.3-1-12.2,3.6-12.2,10v459.1c0,18.8,13.3,36.1,32,38.1   c23.5,2.6,42.7-17.1,40.1-39.9l-18.8-169.5c-1.3-11.8,2.5-23.8,10.9-32.2C403.2,261,408.4,252.3,408.4,242.2z"/></g><text x="0" y="527" fill="#000000" font-size="5px" font-weight="bold" font-family="'Helvetica Neue', Helvetica, Arial-Unicode, Arial, Sans-serif">Created by ProSymbols</text><text x="0" y="532" fill="#000000" font-size="5px" font-weight="bold" font-family="'Helvetica Neue', Helvetica, Arial-Unicode, Arial, Sans-serif">from the Noun Project</text></svg>