<svg xmlns:dc="http://purl.org/dc/elements/1.1/" xmlns:cc="http://creativecommons.org/ns#" xmlns:rdf="http://www.w3.org/1999/02/22-rdf-syntax-ns#" xmlns:svg="http://www.w3.org/2000/svg" xmlns="http://www.w3.org/2000/svg" xmlns:sodipodi="http://sodipodi.sourceforge.net/DTD/sodipodi-0.dtd" xmlns:inkscape="http://www.inkscape.org/namespaces/inkscape" version="1.1" x="0px" y="0px" viewBox="0 0 100 125"><g transform="translate(0,-952.36218)"><path style="text-indent:0;text-transform:none;direction:ltr;block-progression:tb;baseline-shift:baseline;color:#000000;enable-background:accumulate;" d="m 91.068752,1032.1915 c 0.2642,0 0.5283,0.1024 0.7163,0.2879 0.1881,0.1855 0.2979,0.448 0.2979,0.7121 0,0.2642 -0.1098,0.5267 -0.2979,0.7122 -0.188,0.1855 -0.4521,0.2916 -0.7163,0.2878 l -82.137404,0 c -0.2643,0 -0.5283,-0.1023 -0.7164,-0.2878 -0.1881,-0.1855 -0.2979,-0.448 -0.2979,-0.7122 0,-0.2641 0.1098,-0.5266 0.2979,-0.7121 0.1881,-0.1855 0.4521,-0.2916 0.7164,-0.2879 z" fill="#000000" fill-opacity="1" fill-rule="evenodd" stroke="none" marker="none" visibility="visible" display="inline" overflow="visible"/><path d="m 54.458048,970.5328 -1.8438,3.2188 -0.7812,1.3438 c 21.7903,0.9626 39.156204,18.938 39.156204,41.0312 0,2.3274 -0.1845,4.6251 -0.5625,6.8438 l -80.843704,0 c -0.3712,-2.223 -0.5938,-4.5206 -0.5938,-6.8438 0,-22.5939 18.1874,-40.9092 40.6875,-41.0938 l -0.75,-1.2812 -1.875,-3.2188 3.7187,0 3.6876,0 z m -0.8438,11.0626 c -0.2646,-0.01 -0.5273,0.098 -0.7188,0.2812 -0.1914,0.1828 -0.3124,0.4541 -0.3124,0.7188 0,0.2646 0.095,0.5305 0.2812,0.7187 0.1862,0.1883 0.454,0.2821 0.7188,0.2813 4.836,0.07 12.0623,3.8507 17.875,9.9374 5.8126,6.0868 10.2744,14.3913 10.1874,23.2813 -0.01,0.265 0.066,0.5276 0.25,0.7187 0.1838,0.1912 0.4536,0.3126 0.7188,0.3126 0.2653,0 0.5312,-0.094 0.7188,-0.2813 0.1874,-0.1875 0.3124,-0.4536 0.3124,-0.7187 0.094,-9.5664 -4.664,-18.3145 -10.75,-24.6876 -6.086,-6.373 -13.4833,-10.4794 -19.2812,-10.5624 z" style="text-indent:0;text-transform:none;direction:ltr;block-progression:tb;baseline-shift:baseline;color:#000000;enable-background:accumulate;" fill="#000000" fill-opacity="1" fill-rule="evenodd" stroke="none" marker="none" visibility="visible" display="inline" overflow="visible"/></g><text x="0" y="115" fill="#000000" font-size="5px" font-weight="bold" font-family="'Helvetica Neue', Helvetica, Arial-Unicode, Arial, Sans-serif">Created by chabib ali machbubi</text><text x="0" y="120" fill="#000000" font-size="5px" font-weight="bold" font-family="'Helvetica Neue', Helvetica, Arial-Unicode, Arial, Sans-serif">from the Noun Project</text></svg>