<svg xmlns="http://www.w3.org/2000/svg" xmlns:xlink="http://www.w3.org/1999/xlink" version="1.1" x="0px" y="0px" viewBox="0 0 100 125" enable-background="new 0 0 100 100" xml:space="preserve"><g><g><path d="M61.529,46.084c-5.903,0-10.712-4.804-10.712-10.712c0-5.928,4.806-10.729,10.712-10.729c5.935,0,10.73,4.8,10.73,10.729    C72.26,41.28,67.462,46.084,61.529,46.084z"/></g></g><g><path d="M88.166,51.505c-4.617-6.348-13.167-8.017-18.451-4.589c0,0-0.001,0.001-0.002,0.001c-0.333,0.17-0.654,0.375-0.953,0.627   L45.53,67.184L30.957,54.368c-0.475-0.417-1.01-0.724-1.571-0.926H52.02v-3.325h-4.91c-0.003-11.28-8.488-20.55-19.235-21.426   v-4.368c0-0.918-0.744-1.663-1.662-1.663s-1.663,0.744-1.663,1.663v4.368C13.805,29.567,5.32,38.837,5.316,50.117h-4.89v3.325   h25.602c-0.748,0.272-1.442,0.73-2.005,1.371c-1.792,2.038-1.592,5.143,0.444,6.935l17.755,15.613   c0.927,0.815,2.086,1.224,3.244,1.224c1.128,0,2.256-0.387,3.173-1.161l10.416-8.806c-1.729,5.221-3.491,10.197-3.491,10.197   h27.563V64.477l5.681,14.339h10.706C99.515,78.815,97.269,64.961,88.166,51.505z M26.212,31.942   c9.687,0,17.569,8.153,17.572,18.175H8.642C8.645,40.095,16.526,31.942,26.212,31.942z"/></g><text x="0" y="115" fill="#000000" font-size="5px" font-weight="bold" font-family="'Helvetica Neue', Helvetica, Arial-Unicode, Arial, Sans-serif">Created by Luis Prado</text><text x="0" y="120" fill="#000000" font-size="5px" font-weight="bold" font-family="'Helvetica Neue', Helvetica, Arial-Unicode, Arial, Sans-serif">from the Noun Project</text></svg>