<svg xmlns="http://www.w3.org/2000/svg" xmlns:xlink="http://www.w3.org/1999/xlink" version="1.1" x="0px" y="0px" viewBox="0 0 100 100" style="enable-background:new 0 0 100 100;" xml:space="preserve"><path d="M96.1,36.4l-6.2-3.1l-0.1-0.1c-0.4,0.8-1,2-0.9,2.3l-8.3,3.3l4.3,8.7c0.2,0.4,0.2,0.9-0.1,1.2L50.4,96.6L15.8,48.6  c-0.2-0.3-0.3-0.8-0.1-1.2l4.3-8.7l-8.3-3.3l-0.9-2.2l0,0.1l-6.4,3.2c-0.5,0.3-0.7,0.8-0.6,1.3l16.5,58c0.1,0.5,0.6,0.9,1.1,0.9  h57.6c0.5,0,1-0.3,1.1-0.9l16.5-58C96.8,37.3,96.5,36.7,96.1,36.4z"></path><path d="M22.1,37.1c0.3,0.1,0.5,0.3,0.7,0.7c0.1,0.1,0.1,0.3,0.1,0.5c0,0.1-0.1,0.3-0.1,0.5l-4.6,9.1L49,91.5L33.5,36.2l8-11.2  l3.4,5.4L41.7,57l8.7,32.2L58.9,57l-3.2-26.6l3.5-5.4l8,11.2L51.7,91.6l30.9-43.7L78,38.7c-0.1-0.3-0.2-0.6-0.1-0.9  c0.1-0.3,0.3-0.5,0.7-0.7l8.5-3.4l0.9-2.6L75.4,16.2l-3.1-10c0,0,0,0,0-0.1s0-0.1-0.1-0.1c0,0,0-0.1-0.1-0.1l-0.1-0.1L72,5.8L72,5.7  l-0.1-0.1c-0.1,0-0.1-0.1-0.1-0.1c0,0-0.1,0-0.1-0.1c-0.1,0-0.1-0.1-0.1-0.1h-0.1c-0.1,0-0.1,0-0.1-0.1h-0.1c0,0,0,0-0.1,0L50.4,2.7  c-0.1,0-0.1,0-0.1,0h-0.1c-0.1,0-0.1,0-0.1,0L29.3,5.4h-0.1c-0.1,0-0.1,0-0.1,0c0,0-0.1,0-0.1,0.1c-0.1,0-0.1,0.1-0.1,0.1  c0,0-0.1,0-0.1,0.1c-0.1,0-0.1,0.1-0.1,0.1l-0.1,0.1l-0.1,0.1l-0.1,0.1l-0.1,0.1c0,0,0,0.1-0.1,0.1c0,0.1,0,0.1-0.1,0.1  c0,0,0,0,0,0.1l-3.1,10l-12.6,15l1,2.5L22.1,37.1z M62.1,9.6l8.3-1.6l2.7,8.9L68,33.4L60,22.2l-4.5-6.3l-3.2-4.5L62.1,9.6z   M30.3,7.9l8.2,1.6l9.8,1.9L45.1,16l-4.5,6.3l-7.9,11.1l-5.1-16.5L30.3,7.9z"></path></svg>