<svg xmlns="http://www.w3.org/2000/svg" xmlns:xlink="http://www.w3.org/1999/xlink" version="1.1" x="0px" y="0px" viewBox="0 0 90 112.5" enable-background="new 0 0 90 90" xml:space="preserve"><g><path d="M65.048,15.194c-3.804-4.672-7.657-7.523-7.819-7.643C56.93,7.332,56.533,7.3,56.201,7.47   c-0.399,0.205-7.668,4.075-11.539,13.877c-3.148-2.014-6.905-3.612-11.185-4.734c-6.317-1.656-11.479-1.708-11.696-1.71   c-0.395-0.016-0.692,0.192-0.865,0.507c-0.087,0.158-8.596,16.014,2.323,32.151C33.723,63.057,50.104,66.76,51.751,67.098   c-0.214,5.419,0.195,12.26,3.189,15.254c0.191,0.191,0.442,0.287,0.693,0.287s0.502-0.096,0.693-0.287   c0.383-0.383,0.383-1.004,0-1.387c-3.65-3.65-2.714-15.87-1.985-20.742c1.231-1.041,2.427-2.034,3.521-2.936   c8.276-6.812,13.743-11.311,14.428-23.226C72.641,27.968,70.136,21.444,65.048,15.194z M24.863,46.463   c-9.142-13.512-3.789-26.8-2.489-29.579c3.434,0.154,20.531,1.479,28.029,12.561c6.759,9.987,5.219,16.561,2.668,27.453   c-0.564,2.407-1.195,5.104-1.789,8.072C47.566,64.009,33.804,59.676,24.863,46.463z M70.332,33.949   c-0.634,11.058-5.558,15.109-13.715,21.824c-0.506,0.416-1.034,0.852-1.573,1.298c1.546-6.602,2.739-11.873,1.836-17.369   c0.167-0.438,0.318-0.87,0.439-1.293c2.846-3.323,6.523-4.212,6.745-4.262c0.528-0.117,0.862-0.64,0.746-1.169   c-0.117-0.528-0.638-0.861-1.169-0.746c-0.192,0.042-2.988,0.707-5.789,2.955c0.263-4.929-2.146-8.246-2.183-8.294   c-0.324-0.432-0.939-0.52-1.373-0.194c-0.433,0.326-0.52,0.941-0.193,1.374c0.031,0.042,2.253,3.086,1.754,7.642   c-0.818-2.321-2.051-4.741-3.829-7.369c-1.472-2.175-3.381-4.123-5.67-5.824c3.047-7.974,8.501-11.927,10.213-12.998   C59.185,11.611,71.031,21.778,70.332,33.949z"/><path d="M44.67,46.452c-0.003-0.068-0.004-0.134-0.021-0.201c-0.004-0.017,0-0.033-0.005-0.049   c-0.601-1.911-1.383-3.501-2.251-4.833c-1.345-5.004,0.424-9.184,0.522-9.409c0.219-0.495-0.004-1.073-0.499-1.292   c-0.494-0.221-1.075,0.002-1.294,0.498c-0.09,0.202-1.377,3.208-1.172,7.261c-1.126-1.066-2.267-1.832-3.275-2.372   c-2.858-1.53-5.285-1.658-5.387-1.663c-0.507-0.033-0.996,0.392-1.023,0.932c-0.026,0.54,0.39,0.999,0.93,1.027   c0.28,0.015,5.694,0.372,9.384,5.807c0.458,1.591,1.181,3.246,2.324,4.896c0.002,0.002,0.005,0.003,0.006,0.005   c0.083,0.118,0.193,0.207,0.316,0.277c0.029,0.017,0.056,0.03,0.086,0.044c0.125,0.057,0.257,0.097,0.397,0.097c0,0,0,0,0.001,0h0   c0.098,0,0.195-0.016,0.291-0.045c0.001-0.001,0.002,0,0.003-0.001c0.005-0.002,0.009-0.006,0.014-0.008   c0.086-0.028,0.171-0.066,0.25-0.121c0.014-0.01,0.02-0.024,0.033-0.034c0.056-0.044,0.099-0.097,0.144-0.15   c0.038-0.045,0.08-0.085,0.108-0.136c0.032-0.055,0.047-0.114,0.068-0.175c0.021-0.06,0.044-0.115,0.053-0.177   C44.681,46.572,44.673,46.513,44.67,46.452z"/></g><text x="0" y="105" fill="#000000" font-size="5px" font-weight="bold" font-family="'Helvetica Neue', Helvetica, Arial-Unicode, Arial, Sans-serif">Created by Marvin Wilhelm</text><text x="0" y="110" fill="#000000" font-size="5px" font-weight="bold" font-family="'Helvetica Neue', Helvetica, Arial-Unicode, Arial, Sans-serif">from the Noun Project</text></svg>